<svg xmlns="http://www.w3.org/2000/svg" viewBox="0 0 32 32">
  <!-- Teal rounded square background -->
  <rect width="32" height="32" rx="6" fill="#076d86"/>
  <!-- Open book left page -->
  <path d="M16 22 C16 22 10 20 8 11 L8 10 C10 19 16 21 16 21Z" fill="white"/>
  <!-- Open book right page -->
  <path d="M16 22 C16 22 22 20 24 11 L24 10 C22 19 16 21 16 21Z" fill="white"/>
  <!-- Book spine -->
  <line x1="16" y1="10" x2="16" y2="22" stroke="white" stroke-width="1.2"/>
  <!-- Book top curve left -->
  <path d="M8 10 Q12 7 16 10" fill="none" stroke="white" stroke-width="1.5" stroke-linecap="round"/>
  <!-- Book top curve right -->
  <path d="M16 10 Q20 7 24 10" fill="none" stroke="white" stroke-width="1.5" stroke-linecap="round"/>
  <!-- Wave underneath -->
  <path d="M7 25 Q9.5 23 12 25 Q14.5 27 17 25 Q19.5 23 25 25" fill="none" stroke="white" stroke-width="1.8" stroke-linecap="round"/>
</svg>
